<?xml version="1.0" encoding="utf-8"?>
<!-- Generator: Adobe Illustrator 26.1.0, SVG Export Plug-In . SVG Version: 6.00 Build 0)  -->
<svg version="1.1" id="Layer_1" xmlns="http://www.w3.org/2000/svg" xmlns:xlink="http://www.w3.org/1999/xlink" x="0px" y="0px"
	 viewBox="0 0 787.4 578.2" style="enable-background:new 0 0 787.4 578.2;" xml:space="preserve">
<style type="text/css">
	.st0{fill:#FFB6B6;}
	.st1{fill:#2F2E41;}
	.st2{fill:#E8786E;}
	.st3{fill:#3F3D56;}
	.st4{fill:#E6E6E6;}
	.st5{font-family:'MyriadPro-Regular';}
	.st6{font-size:18.7689px;}
	.st7{fill:#FBD6DB;}
</style>
<image style="overflow:visible;" width="223" height="212" xlink:href="CDEB290FC99E9652.jpg"  transform="matrix(0.2521 0 0 0.2015 677.83 172.5988)">
</image>
<image style="overflow:visible;" width="2267" height="1502" xlink:href="CDEB290FC99E9653.jpg"  transform="matrix(0.1653 -2.328211e-02 -2.085329e-02 -0.148 744.3789 470.096)">
</image>
<path id="b-54" class="st0" d="M380.8,268.8c-9.1,2.4-15.2,9-13.6,14.7c1.6,5.7,10.2,8.4,19.3,5.9c3.7-0.9,7-2.7,9.8-5.2l38.4-10.7
	l-5.5-17.6L392,268.3C388.3,267.6,384.4,267.7,380.8,268.8L380.8,268.8z"/>
<path class="st1" d="M544.6,167.2c-2.5,10.8,2.3,16.8,8.1,14.4c5.6,0.5,31.7,3.7,32.7,1.5c6.7-15.5-19.3-49.6-25.5-50.9
	c-3.3-0.7-7.6,4.1-9.3,8.2c-2.5,5.7,0.6,8.6-1.6,16.3C547.2,162.7,545,162.8,544.6,167.2z"/>
<g>
	<polygon class="st0" points="477.8,466.9 454.9,472 477.9,539.3 493.4,535.8 	"/>
	<path class="st1" d="M469.6,518.3l8.9,1.3l1.4,4.7c0,0,0.3-5.9,10.1-10l2.5,4.2c0,0,5.2,3.3,6.9,11.5l3.8,22.3l-7.7,2l-5.7-14.6
		c0,0-3.1-2.8-8.1,16.1c0,0-2,6.4-20.2,5.6c-2.5-0.1-4.7-1.7-5.4-4.1c-0.4-1.3-0.2-2.7,1.3-3.6c3.9-2.3,8.4-2.1,10.2-6.2
		C469.5,543.4,469.6,518.3,469.6,518.3L469.6,518.3z"/>
</g>
<g>
	<polygon class="st0" points="527.6,497.4 507.1,496.9 510,567.8 525.9,568.1 	"/>
	<path class="st1" d="M507.1,545.4l8.3,3.3l0.2,4.9c0,0,1.7-5.7,12.2-7.3l1.4,4.7c0,0,4.3,4.5,3.9,12.9l-1.8,22.5l-8,0.1l-1.9-15.5
		c0,0-2.3-3.5-11.8,13.7c0,0-3.5,5.7-21,0.7c-2.4-0.7-4.1-2.8-4.2-5.3c0-1.4,0.5-2.6,2.2-3.1c4.4-1.3,8.7,0,11.4-3.6
		C500.8,569.8,507.1,545.4,507.1,545.4L507.1,545.4z"/>
</g>
<polygon class="st1" points="569.9,420.1 461.6,411.8 492,288.9 565,278.6 "/>
<polygon class="st2" points="554.9,194.1 577.7,182.2 596.2,203.6 559.1,320.3 491.4,290.8 542.9,204.3 "/>
<polygon class="st3" points="547.5,204.4 554.4,194 516.3,216 486.2,298 541.7,229.9 "/>
<path id="c-55" class="st0" d="M642.7,358.8c2.6,8.9,9.4,14.8,15.2,13.2s8.3-10.2,5.7-19.1c-1-3.6-2.9-6.9-5.4-9.6l-11.6-37.6
	l-17.8,5.7l13.3,36.5C641.4,351.5,641.6,355.3,642.7,358.8L642.7,358.8z"/>
<path class="st3" d="M584.3,199.9c0,0,15.6-11.1,28.3,12.6s31.1,67.7,31.1,67.7l16.3,61l-20.4,9.9l-22.3-72.3l-35.4-58.4
	L584.3,199.9L584.3,199.9z"/>
<ellipse class="st0" cx="567.4" cy="159.1" rx="23.7" ry="31.3"/>
<path class="st1" d="M570.2,144.2c-1.4-0.1-2.2,1.3-7.6,3.4c-1.9,0.7-2.9,1.1-4.1,1.2c-3.4,0.2-6.1-1.7-7.9-2.9
	c-2.9-2-4.8-3.3-5.1-5.4c-0.5-2.7,2.7-5.8,9-11.8c3.1-2.9,5-4.7,8-6.8c5.1-3.5,7.6-5.3,11.2-5.7c4.7-0.5,8.3,1.8,13.5,4.9
	c1.4,0.9,3.4,1.3,5.5,1.4c7,0.5,13,5.1,14.9,11.7c0.1,0.5,0.3,1,0.4,1.4c3.7,16.1,2.7,32.8-2.4,48.6c-0.1,0.4-0.3,0.8-0.3,1.2
	c-2.4,9.6-35.1,13.3-38.9,5.2c-2.4-5.1,8.9-10.2,10.5-25.4C577.9,154.6,573.8,144.5,570.2,144.2L570.2,144.2z"/>
<polygon class="st4" points="160.1,151.1 467.2,152.2 467.2,153.6 160.1,152.5 "/>
<rect x="132.6" y="424.8" class="st4" width="274.6" height="1.4"/>
<g>
	<ellipse class="st4" cx="165.9" cy="398.3" rx="11.8" ry="11.6"/>
	<ellipse class="st4" cx="130.5" cy="425.1" rx="11.8" ry="11.6"/>
</g>
<text transform="matrix(1.0164 0 0 1 201.4287 139.0918)" class="st5 st6">end redundant applications</text>
<ellipse class="st3" cx="181" cy="130" rx="11.8" ry="11.6"/>
<ellipse class="st3" cx="145.3" cy="151.1" rx="11.8" ry="11.6"/>
<text transform="matrix(1.0164 0 0 1 187.0776 405.0595)" class="st5 st6">lets slay it together </text>
<polygon class="st4" points="61.9,279.2 369,280.3 369,281.6 61.9,280.6 "/>
<text transform="matrix(1.0164 0 0 1 103.2715 267.1638)" class="st5 st6">end redundant applications</text>
<ellipse class="st3" cx="82.8" cy="258.1" rx="11.8" ry="11.6"/>
<ellipse class="st3" cx="47.1" cy="279.2" rx="11.8" ry="11.6"/>
<path class="st3" d="M663.4,70.6H403.6c-9.5,0-17.3,7.6-17.3,17v263.6c0,9.4,7.7,17,17.3,17h259.8c9.5,0,17.3-7.6,17.3-17V87.6
	C680.6,78.2,672.9,70.6,663.4,70.6z M678.8,351.2c0,8.4-6.9,15.2-15.5,15.2H403.6c-8.5,0-15.5-6.8-15.5-15.2V87.6
	c0-8.4,6.9-15.2,15.5-15.2h137.6c76,0,137.6,60.6,137.6,135.4V351.2z"/>
<polygon class="st7" points="681.8,273.5 677.8,272.3 677.8,241.3 681.8,241.3 "/>
<polygon class="st7" points="677.8,278.2 681.9,275.5 681.9,303.5 677.8,300 "/>
<rect x="382" y="270.2" transform="matrix(0.998 -6.280159e-02 6.280159e-02 0.998 -16.7888 24.7528)" class="st0" width="6.8" height="18.6"/>
<rect x="384.7" y="268.6" transform="matrix(6.123234e-17 -1 1 6.123234e-17 116.7035 656.7692)" class="st0" width="4.1" height="2.8"/>
<path class="st3" d="M541.9,215.8c0,0,10.9,15.7-13.6,27.5c-24.5,11.8-69.7,28.7-69.7,28.7l-62.4,14.2l-9.4-20.3l74.1-19.9
	l60.4-33.1L541.9,215.8L541.9,215.8z"/>
<polygon class="st0" points="388.5,288.8 385.7,289.6 384.9,287.8 387.7,287.8 "/>
<polygon class="st0" points="662.4,369 648.5,369 646.7,366.1 663.4,366.1 "/>
<path class="st1" d="M562.9,302.9c0,0,5.4,37.2-18,55.2l-7.9,21.2l-9.4,39.3l-4.4,102.6l-27.1-4l-6-98.7l2.3-48.9l-41.9,31.9
	l38,83.3l-35,13.1l-37-100c-2.6-6.1-1.5-13.1,2.9-18.2l77.6-88.5L562.9,302.9z"/>
<path class="st3" d="M586.1,191.8l-44.7,41.1c-10.6,84.5-4.8,162.2,25.7,229.3l75.2-34.3c-62-18.5-55.9-120.1-43.9-228.9
	L586.1,191.8L586.1,191.8z"/>
</svg>
